<mxfile host="65bd71144e">
    <diagram id="bTqRXumvLnAqaVq_V4qi" name="Page-1">
        <mxGraphModel dx="1118" dy="617" grid="1" gridSize="10" guides="1" tooltips="1" connect="1" arrows="1" fold="1" page="1" pageScale="1" pageWidth="850" pageHeight="1100" math="0" shadow="0">
            <root>
                <mxCell id="0"/>
                <mxCell id="1" parent="0"/>
                <mxCell id="2" value="Store&#10;" style="swimlane;fontStyle=0;childLayout=stackLayout;horizontal=1;startSize=30;horizontalStack=0;resizeParent=1;resizeParentMax=0;resizeLast=0;collapsible=1;marginBottom=0;" parent="1" vertex="1">
                    <mxGeometry x="30" y="40" width="140" height="180" as="geometry">
                        <mxRectangle x="30" y="40" width="60" height="30" as="alternateBounds"/>
                    </mxGeometry>
                </mxCell>
                <object label="storeID" Key="" Null="" Unsigned="" Default="" Type="" AI="" id="10">
                    <mxCell style="text;strokeColor=none;fillColor=none;align=left;verticalAlign=middle;spacingLeft=4;spacingRight=4;overflow=hidden;points=[[0,0.5],[1,0.5]];portConstraint=eastwest;rotatable=0;" parent="2" vertex="1">
                        <mxGeometry y="30" width="140" height="30" as="geometry"/>
                    </mxCell>
                </object>
                <object label="storeName" Key="" Null="" Unsigned="" Default="" Type="" AI="" id="11">
                    <mxCell style="text;strokeColor=none;fillColor=none;align=left;verticalAlign=middle;spacingLeft=4;spacingRight=4;overflow=hidden;points=[[0,0.5],[1,0.5]];portConstraint=eastwest;rotatable=0;" parent="2" vertex="1">
                        <mxGeometry y="60" width="140" height="30" as="geometry"/>
                    </mxCell>
                </object>
                <object label="storeAddress" Key="" Null="" Unsigned="" Default="" Type="" AI="" id="7">
                    <mxCell style="text;strokeColor=none;fillColor=none;align=left;verticalAlign=middle;spacingLeft=4;spacingRight=4;overflow=hidden;points=[[0,0.5],[1,0.5]];portConstraint=eastwest;rotatable=0;" parent="2" vertex="1">
                        <mxGeometry y="90" width="140" height="30" as="geometry"/>
                    </mxCell>
                </object>
                <object label="storeEmail" Key="" Null="" Unsigned="" Default="" Type="" AI="" id="12">
                    <mxCell style="text;strokeColor=none;fillColor=none;align=left;verticalAlign=middle;spacingLeft=4;spacingRight=4;overflow=hidden;points=[[0,0.5],[1,0.5]];portConstraint=eastwest;rotatable=0;" parent="2" vertex="1">
                        <mxGeometry y="120" width="140" height="30" as="geometry"/>
                    </mxCell>
                </object>
                <object label="status" Key="" Null="" Unsigned="" Default="" Type="" AI="" id="13">
                    <mxCell style="text;strokeColor=none;fillColor=none;align=left;verticalAlign=middle;spacingLeft=4;spacingRight=4;overflow=hidden;points=[[0,0.5],[1,0.5]];portConstraint=eastwest;rotatable=0;" parent="2" vertex="1">
                        <mxGeometry y="150" width="140" height="30" as="geometry"/>
                    </mxCell>
                </object>
                <mxCell id="14" value="Product" style="swimlane;fontStyle=0;childLayout=stackLayout;horizontal=1;startSize=30;horizontalStack=0;resizeParent=1;resizeParentMax=0;resizeLast=0;collapsible=1;marginBottom=0;" parent="1" vertex="1">
                    <mxGeometry x="630" y="230" width="140" height="210" as="geometry"/>
                </mxCell>
                <object label="productID" Key="" Null="" Unsigned="" Default="" Type="" AI="" id="15">
                    <mxCell style="text;strokeColor=none;fillColor=none;align=left;verticalAlign=middle;spacingLeft=4;spacingRight=4;overflow=hidden;points=[[0,0.5],[1,0.5]];portConstraint=eastwest;rotatable=0;" parent="14" vertex="1">
                        <mxGeometry y="30" width="140" height="30" as="geometry"/>
                    </mxCell>
                </object>
                <object label="productName" Key="" Null="" Unsigned="" Default="" Type="" AI="" id="16">
                    <mxCell style="text;strokeColor=none;fillColor=none;align=left;verticalAlign=middle;spacingLeft=4;spacingRight=4;overflow=hidden;points=[[0,0.5],[1,0.5]];portConstraint=eastwest;rotatable=0;" parent="14" vertex="1">
                        <mxGeometry y="60" width="140" height="30" as="geometry"/>
                    </mxCell>
                </object>
                <object label="productDesc" Key="" Null="" Unsigned="" Default="" Type="" AI="" id="17">
                    <mxCell style="text;strokeColor=none;fillColor=none;align=left;verticalAlign=middle;spacingLeft=4;spacingRight=4;overflow=hidden;points=[[0,0.5],[1,0.5]];portConstraint=eastwest;rotatable=0;" parent="14" vertex="1">
                        <mxGeometry y="90" width="140" height="30" as="geometry"/>
                    </mxCell>
                </object>
                <object label="productPrice" Key="" Null="" Unsigned="" Default="" Type="" AI="" id="18">
                    <mxCell style="text;strokeColor=none;fillColor=none;align=left;verticalAlign=middle;spacingLeft=4;spacingRight=4;overflow=hidden;points=[[0,0.5],[1,0.5]];portConstraint=eastwest;rotatable=0;" parent="14" vertex="1">
                        <mxGeometry y="120" width="140" height="30" as="geometry"/>
                    </mxCell>
                </object>
                <object label="productQty" Key="" Null="" Unsigned="" Default="" Type="" AI="" id="20">
                    <mxCell style="text;strokeColor=none;fillColor=none;align=left;verticalAlign=middle;spacingLeft=4;spacingRight=4;overflow=hidden;points=[[0,0.5],[1,0.5]];portConstraint=eastwest;rotatable=0;" parent="14" vertex="1">
                        <mxGeometry y="150" width="140" height="30" as="geometry"/>
                    </mxCell>
                </object>
                <object label="status" Key="" Null="" Unsigned="" Default="" Type="" AI="" id="19">
                    <mxCell style="text;strokeColor=none;fillColor=none;align=left;verticalAlign=middle;spacingLeft=4;spacingRight=4;overflow=hidden;points=[[0,0.5],[1,0.5]];portConstraint=eastwest;rotatable=0;" parent="14" vertex="1">
                        <mxGeometry y="180" width="140" height="30" as="geometry"/>
                    </mxCell>
                </object>
                <mxCell id="21" value="Customer" style="swimlane;fontStyle=0;childLayout=stackLayout;horizontal=1;startSize=30;horizontalStack=0;resizeParent=1;resizeParentMax=0;resizeLast=0;collapsible=1;marginBottom=0;" parent="1" vertex="1">
                    <mxGeometry x="30" y="240" width="140" height="300" as="geometry"/>
                </mxCell>
                <object label="customerID" Key="" Null="" Unsigned="" Default="" Type="" AI="" id="22">
                    <mxCell style="text;strokeColor=none;fillColor=none;align=left;verticalAlign=middle;spacingLeft=4;spacingRight=4;overflow=hidden;points=[[0,0.5],[1,0.5]];portConstraint=eastwest;rotatable=0;" parent="21" vertex="1">
                        <mxGeometry y="30" width="140" height="30" as="geometry"/>
                    </mxCell>
                </object>
                <object label="firstName" Key="" Null="" Unsigned="" Default="" Type="" AI="" id="23">
                    <mxCell style="text;strokeColor=none;fillColor=none;align=left;verticalAlign=middle;spacingLeft=4;spacingRight=4;overflow=hidden;points=[[0,0.5],[1,0.5]];portConstraint=eastwest;rotatable=0;" parent="21" vertex="1">
                        <mxGeometry y="60" width="140" height="30" as="geometry"/>
                    </mxCell>
                </object>
                <object label="secondName" Key="" Null="" Unsigned="" Default="" Type="" AI="" id="25">
                    <mxCell style="text;strokeColor=none;fillColor=none;align=left;verticalAlign=middle;spacingLeft=4;spacingRight=4;overflow=hidden;points=[[0,0.5],[1,0.5]];portConstraint=eastwest;rotatable=0;" parent="21" vertex="1">
                        <mxGeometry y="90" width="140" height="30" as="geometry"/>
                    </mxCell>
                </object>
                <object label="surname" Key="" Null="" Unsigned="" Default="" Type="" AI="" id="26">
                    <mxCell style="text;strokeColor=none;fillColor=none;align=left;verticalAlign=middle;spacingLeft=4;spacingRight=4;overflow=hidden;points=[[0,0.5],[1,0.5]];portConstraint=eastwest;rotatable=0;" parent="21" vertex="1">
                        <mxGeometry y="120" width="140" height="30" as="geometry"/>
                    </mxCell>
                </object>
                <object label="houseNumName" Key="" Null="" Unsigned="" Default="" Type="" AI="" id="27">
                    <mxCell style="text;strokeColor=none;fillColor=none;align=left;verticalAlign=middle;spacingLeft=4;spacingRight=4;overflow=hidden;points=[[0,0.5],[1,0.5]];portConstraint=eastwest;rotatable=0;" parent="21" vertex="1">
                        <mxGeometry y="150" width="140" height="30" as="geometry"/>
                    </mxCell>
                </object>
                <object label="addressTwo" Key="" Null="" Unsigned="" Default="" Type="" AI="" id="34">
                    <mxCell style="text;strokeColor=none;fillColor=none;align=left;verticalAlign=middle;spacingLeft=4;spacingRight=4;overflow=hidden;points=[[0,0.5],[1,0.5]];portConstraint=eastwest;rotatable=0;" parent="21" vertex="1">
                        <mxGeometry y="180" width="140" height="30" as="geometry"/>
                    </mxCell>
                </object>
                <object label="townCity" Key="" Null="" Unsigned="" Default="" Type="" AI="" id="35">
                    <mxCell style="text;strokeColor=none;fillColor=none;align=left;verticalAlign=middle;spacingLeft=4;spacingRight=4;overflow=hidden;points=[[0,0.5],[1,0.5]];portConstraint=eastwest;rotatable=0;" parent="21" vertex="1">
                        <mxGeometry y="210" width="140" height="30" as="geometry"/>
                    </mxCell>
                </object>
                <object label="postCode" Key="" Null="" Unsigned="" Default="" Type="" AI="" id="36">
                    <mxCell style="text;strokeColor=none;fillColor=none;align=left;verticalAlign=middle;spacingLeft=4;spacingRight=4;overflow=hidden;points=[[0,0.5],[1,0.5]];portConstraint=eastwest;rotatable=0;" parent="21" vertex="1">
                        <mxGeometry y="240" width="140" height="30" as="geometry"/>
                    </mxCell>
                </object>
                <object label="status&#10;" Key="" Null="" Unsigned="" Default="" Type="" AI="" id="37">
                    <mxCell style="text;strokeColor=none;fillColor=none;align=left;verticalAlign=middle;spacingLeft=4;spacingRight=4;overflow=hidden;points=[[0,0.5],[1,0.5]];portConstraint=eastwest;rotatable=0;" parent="21" vertex="1">
                        <mxGeometry y="270" width="140" height="30" as="geometry"/>
                    </mxCell>
                </object>
                <mxCell id="28" value="Shopping Cart" style="swimlane;fontStyle=0;childLayout=stackLayout;horizontal=1;startSize=30;horizontalStack=0;resizeParent=1;resizeParentMax=0;resizeLast=0;collapsible=1;marginBottom=0;" parent="1" vertex="1">
                    <mxGeometry x="240" y="150" width="140" height="210" as="geometry"/>
                </mxCell>
                <object label="shopCartID" Key="" Null="" Unsigned="" Default="" Type="" AI="" id="31">
                    <mxCell style="text;strokeColor=none;fillColor=none;align=left;verticalAlign=middle;spacingLeft=4;spacingRight=4;overflow=hidden;points=[[0,0.5],[1,0.5]];portConstraint=eastwest;rotatable=0;" parent="28" vertex="1">
                        <mxGeometry y="30" width="140" height="30" as="geometry"/>
                    </mxCell>
                </object>
                <object label="storeID" Key="" Null="" Unsigned="" Default="" Type="" AI="" id="32">
                    <mxCell style="text;strokeColor=none;fillColor=none;align=left;verticalAlign=middle;spacingLeft=4;spacingRight=4;overflow=hidden;points=[[0,0.5],[1,0.5]];portConstraint=eastwest;rotatable=0;" parent="28" vertex="1">
                        <mxGeometry y="60" width="140" height="30" as="geometry"/>
                    </mxCell>
                </object>
                <object label="customerID" Key="" Null="" Unsigned="" Default="" Type="" AI="" id="33">
                    <mxCell style="text;strokeColor=none;fillColor=none;align=left;verticalAlign=middle;spacingLeft=4;spacingRight=4;overflow=hidden;points=[[0,0.5],[1,0.5]];portConstraint=eastwest;rotatable=0;" parent="28" vertex="1">
                        <mxGeometry y="90" width="140" height="30" as="geometry"/>
                    </mxCell>
                </object>
                <object label="date" Key="" Null="" Unsigned="" Default="" Type="" AI="" id="45">
                    <mxCell style="text;strokeColor=none;fillColor=none;align=left;verticalAlign=middle;spacingLeft=4;spacingRight=4;overflow=hidden;points=[[0,0.5],[1,0.5]];portConstraint=eastwest;rotatable=0;" parent="28" vertex="1">
                        <mxGeometry y="120" width="140" height="30" as="geometry"/>
                    </mxCell>
                </object>
                <object label="orderStatus" Key="" Null="" Unsigned="" Default="" Type="" AI="" id="46">
                    <mxCell style="text;strokeColor=none;fillColor=none;align=left;verticalAlign=middle;spacingLeft=4;spacingRight=4;overflow=hidden;points=[[0,0.5],[1,0.5]];portConstraint=eastwest;rotatable=0;" parent="28" vertex="1">
                        <mxGeometry y="150" width="140" height="30" as="geometry"/>
                    </mxCell>
                </object>
                <object label="status" Key="" Null="" Unsigned="" Default="" Type="" AI="" id="47">
                    <mxCell style="text;strokeColor=none;fillColor=none;align=left;verticalAlign=middle;spacingLeft=4;spacingRight=4;overflow=hidden;points=[[0,0.5],[1,0.5]];portConstraint=eastwest;rotatable=0;" parent="28" vertex="1">
                        <mxGeometry y="180" width="140" height="30" as="geometry"/>
                    </mxCell>
                </object>
                <mxCell id="39" value="ShoppingCartDetails" style="swimlane;fontStyle=0;childLayout=stackLayout;horizontal=1;startSize=30;horizontalStack=0;resizeParent=1;resizeParentMax=0;resizeLast=0;collapsible=1;marginBottom=0;" parent="1" vertex="1">
                    <mxGeometry x="440" y="210" width="140" height="150" as="geometry"/>
                </mxCell>
                <object label="shopCartDetID" Key="" Null="" Unsigned="" Default="" Type="" AI="" id="40">
                    <mxCell style="text;strokeColor=none;fillColor=none;align=left;verticalAlign=middle;spacingLeft=4;spacingRight=4;overflow=hidden;points=[[0,0.5],[1,0.5]];portConstraint=eastwest;rotatable=0;" parent="39" vertex="1">
                        <mxGeometry y="30" width="140" height="30" as="geometry"/>
                    </mxCell>
                </object>
                <object label="shopCartID" Key="" Null="" Unsigned="" Default="" Type="" AI="" id="41">
                    <mxCell style="text;strokeColor=none;fillColor=none;align=left;verticalAlign=middle;spacingLeft=4;spacingRight=4;overflow=hidden;points=[[0,0.5],[1,0.5]];portConstraint=eastwest;rotatable=0;" parent="39" vertex="1">
                        <mxGeometry y="60" width="140" height="30" as="geometry"/>
                    </mxCell>
                </object>
                <object label="productID" Key="" Null="" Unsigned="" Default="" Type="" AI="" id="42">
                    <mxCell style="text;strokeColor=none;fillColor=none;align=left;verticalAlign=middle;spacingLeft=4;spacingRight=4;overflow=hidden;points=[[0,0.5],[1,0.5]];portConstraint=eastwest;rotatable=0;" parent="39" vertex="1">
                        <mxGeometry y="90" width="140" height="30" as="geometry"/>
                    </mxCell>
                </object>
                <object label="prodAddedQty" Key="" Null="" Unsigned="" Default="" Type="" AI="" id="43">
                    <mxCell style="text;strokeColor=none;fillColor=none;align=left;verticalAlign=middle;spacingLeft=4;spacingRight=4;overflow=hidden;points=[[0,0.5],[1,0.5]];portConstraint=eastwest;rotatable=0;" parent="39" vertex="1">
                        <mxGeometry y="120" width="140" height="30" as="geometry"/>
                    </mxCell>
                </object>
                <mxCell id="50" value="" style="edgeStyle=entityRelationEdgeStyle;fontSize=12;html=1;endArrow=ERoneToMany;startArrow=ERmandOne;" parent="1" source="22" target="33" edge="1">
                    <mxGeometry width="100" height="100" relative="1" as="geometry">
                        <mxPoint x="190" y="270" as="sourcePoint"/>
                        <mxPoint x="290" y="170" as="targetPoint"/>
                    </mxGeometry>
                </mxCell>
                <mxCell id="51" value="" style="edgeStyle=entityRelationEdgeStyle;fontSize=12;html=1;endArrow=ERoneToMany;startArrow=ERmandOne;" parent="1" source="10" target="32" edge="1">
                    <mxGeometry width="100" height="100" relative="1" as="geometry">
                        <mxPoint x="210" y="140" as="sourcePoint"/>
                        <mxPoint x="310" y="40" as="targetPoint"/>
                    </mxGeometry>
                </mxCell>
                <mxCell id="52" value="" style="edgeStyle=entityRelationEdgeStyle;fontSize=12;html=1;endArrow=ERoneToMany;startArrow=ERmandOne;" parent="1" source="31" target="41" edge="1">
                    <mxGeometry width="100" height="100" relative="1" as="geometry">
                        <mxPoint x="470" y="180" as="sourcePoint"/>
                        <mxPoint x="570" y="80" as="targetPoint"/>
                    </mxGeometry>
                </mxCell>
                <mxCell id="53" value="" style="edgeStyle=orthogonalEdgeStyle;fontSize=12;html=1;endArrow=ERoneToMany;startArrow=ERmandOne;entryX=1;entryY=0.5;entryDx=0;entryDy=0;" parent="1" source="15" target="42" edge="1">
                    <mxGeometry width="100" height="100" relative="1" as="geometry">
                        <mxPoint x="510" y="400" as="sourcePoint"/>
                        <mxPoint x="610" y="300" as="targetPoint"/>
                    </mxGeometry>
                </mxCell>
            </root>
        </mxGraphModel>
    </diagram>
</mxfile>